<svg width="102" height="24" viewBox="0 0 102 24" fill="none" xmlns="http://www.w3.org/2000/svg">
<path fill-rule="evenodd" clip-rule="evenodd" d="M7.84009 21.1267V12.1571H9.82743C13.5055 12.1571 16.1157 13.4296 16.1157 17.6816C16.1157 21.2819 14.5437 22.9889 11.0436 22.9889C9.35284 22.9889 7.84009 22.9268 7.84009 21.1267ZM7.84009 11.2905V3.81733C7.84009 2.68327 8.03288 2.62511 9.54306 2.62511C13.7844 2.62511 15.6802 3.52655 15.6802 6.63796C15.6802 9.45859 14.0736 11.2324 10.7962 11.2905H7.84009ZM2.8068 5.10096V20.0798C2.8068 22.7413 2.53222 22.9889 0 23.0198V23.8554H11.0136C15.4679 23.8554 20.4713 23.0817 20.4713 17.8825C20.4713 14.1068 16.9323 12.4975 13.8204 11.8786V11.8167C16.5357 11.3215 19.19 9.7122 19.19 6.58646C19.19 2.00616 13.4543 1.3253 9.73227 1.3253H0V2.1609C2.53222 2.19185 2.8068 2.43943 2.8068 5.10096ZM24.9053 12.6452C24.9053 12.2819 24.5527 11.9187 22.8858 11.8279V11.1013C24.777 10.7683 26.6362 10.1932 28.4953 9.55745V21.5755C28.4953 22.514 28.6877 22.6956 30.2904 22.6956V23.4221H22.982V22.6956C24.7129 22.6956 24.9053 22.514 24.9053 21.5755V12.6452ZM28.9666 3.61002C28.9666 4.91557 27.8348 5.89473 26.6698 5.89473C25.5047 5.89473 24.373 4.91557 24.373 3.61002C24.373 2.30447 25.5047 1.3253 26.6698 1.3253C27.8348 1.3253 28.9666 2.30447 28.9666 3.61002ZM40.7122 11.2075C40.7779 11.2902 40.8368 11.3849 40.8875 11.4931L46.4081 23.7836H47.2502L51.8039 12.8856L56.4511 23.7836H57.3868L61.691 13.3397C62.19 12.0985 62.7202 10.8877 64.1862 10.6455V9.91894H59.4765V10.6455L59.5467 10.6568C60.4539 10.8032 61.2543 10.9324 61.2543 11.4931C61.2543 11.7353 61.0672 12.1894 60.8177 12.7948L58.3225 19.4547L55.4219 12.4618C55.3777 12.3439 55.31 12.188 55.2411 12.0291C55.1153 11.7393 54.9852 11.4395 54.9852 11.3417C54.9852 10.9482 55.765 10.7363 56.9502 10.6455V9.91894H48.7785V10.6455C50.5875 10.7968 51.1489 11.372 51.1489 11.8866C51.1489 12.1937 50.9706 12.6088 50.746 13.1321C50.7048 13.228 50.6621 13.3274 50.6187 13.4305L48.1859 19.3336L45.2541 12.6737C45.1876 12.5078 45.1182 12.353 45.0538 12.2095C44.9069 11.8819 44.7862 11.6128 44.7862 11.4023C44.7862 11.0087 45.5971 10.6455 46.9071 10.6455V9.91894H39.3592V9.92509L36.4636 9.92992V4.79147L31.5182 10.2644V10.9941H33.1469V21.0278C33.1469 22.6696 34.5388 23.8554 36.6413 23.8554C37.9443 23.8554 39.958 22.9737 40.6984 21.9095V20.8149C40.0173 21.4534 39.1881 22.2136 38.2108 22.2136C36.6117 22.2136 36.4636 21.1494 36.4636 20.4197V10.9941L39.8743 10.9875C39.8743 10.9875 40.5654 11.0432 40.7122 11.2075ZM65.4919 11.8279C67.1587 11.9187 67.5113 12.2819 67.5113 12.6452V21.5755C67.5113 22.514 67.3189 22.6956 65.588 22.6956V23.4221H72.8964V22.6956C71.2937 22.6956 71.1013 22.514 71.1013 21.5755V9.55745C69.2422 10.1932 67.3831 10.7683 65.4919 11.1013V11.8279ZM69.3101 5.89473C70.4751 5.89473 71.6068 4.91557 71.6068 3.61002C71.6068 2.30447 70.4751 1.3253 69.3101 1.3253C68.145 1.3253 67.0133 2.30447 67.0133 3.61002C67.0133 4.91557 68.145 5.89473 69.3101 5.89473ZM85.7927 10.6783C84.0063 10.0421 82.3794 9.55745 80.7525 9.55745C78.2643 9.55745 75.0743 10.7994 75.0743 13.5863C75.0743 15.7674 77.1159 16.8882 79.1575 17.7969C81.1991 18.736 83.2407 19.4933 83.2407 20.9473C83.2407 22.159 82.4751 23.1284 81.1353 23.1284C78.041 23.1284 76.5098 20.6747 75.9356 18.0999L75.17 18.221L75.4571 22.7952C76.7331 23.3404 79.0299 23.8554 80.4016 23.8554C83.464 23.8554 86.3988 22.9163 86.3988 19.5539C86.3988 17.2214 84.2615 16.1915 82.2837 15.2524C79.8593 14.1013 78.041 13.3137 78.041 12.2838C78.041 11.1326 79.1256 10.2845 80.2421 10.2845C82.8579 10.2845 84.2296 12.6473 85.0271 14.7374L85.7927 14.6768V10.6783ZM101.557 18.5845L102 19.0389C100.733 22.0076 98.579 23.8554 95.0628 23.8554C90.533 23.8554 88.0622 21.1291 88.0622 16.9488C88.0622 12.7987 91.1665 9.55745 95.5063 9.55745C98.9274 9.55745 101.937 12.0111 101.937 15.4039H91.61C91.4516 18.3119 93.3522 21.1291 96.6467 21.1291C98.8324 21.1291 100.258 20.2203 101.557 18.5845ZM91.6252 14.7567H97.3882C97.9737 14.7567 98.1586 14.6694 98.1586 14.0583C98.1586 12.2541 96.741 10.8573 95.0768 10.8573C92.4881 10.8573 91.7485 12.9816 91.6252 14.7567Z" fill="black"/>
</svg>
